<svg xmlns="http://www.w3.org/2000/svg" viewBox="0 0 48 48" width="48" height="48">
  <linearGradient id="BiF7D16UlC0RZ_VqXJHnXa" x1="9.858" x2="38.142" y1="9.858" y2="38.142" gradientUnits="userSpaceOnUse">
    <stop offset="0" stop-color="#33bef0"/>
    <stop offset="1" stop-color="#0a85d9"/>
  </linearGradient>
  <path fill="url(#BiF7D16UlC0RZ_VqXJHnXa)" d="M44,24c0,11.045-8.955,20-20,20S4,35.045,4,24S12.955,4,24,4S44,12.955,44,24z"/>
  <path d="M10.119,23.466c8.155-3.695,17.733-7.704,19.208-8.284c3.252-1.279,4.67,0.028,4.448,2.113	c-0.273,2.555-1.567,9.99-2.363,15.317c-0.466,3.117-2.154,4.072-4.059,2.863c-1.445-0.917-6.413-4.17-7.72-5.282	c-0.891-0.758-1.512-1.608-0.88-2.474c0.185-0.253,0.658-0.763,0.921-1.017c1.319-1.278,1.141-1.553-0.454-0.412	c-0.19,0.136-1.292,0.935-1.745,1.237c-1.11,0.74-2.131,0.78-3.862,0.192c-1.416-0.481-2.776-0.852-3.634-1.223	C8.794,25.983,8.34,24.272,10.119,23.466z" opacity=".05"/>
  <path d="M10.836,23.591c7.572-3.385,16.884-7.264,18.246-7.813c3.264-1.318,4.465-0.536,4.114,1.527	c-0.458,2.642-1.732,9.803-2.542,15.096c-0.36,2.351-1.61,3.367-2.946,2.41c-1.321-0.946-5.589-3.723-6.973-4.926	c-0.989-0.86-1.64-1.743-0.749-2.632c0.51-0.51,6.08-5.577,6.537-6.03c0.214-0.211,0.043-0.515-0.27-0.422	c-0.113,0.033-8.312,5.26-9.398,6.027c-0.988,0.697-1.823,0.663-3.021,0.21c-1.206-0.456-2.592-0.795-3.295-1.055	C9.547,25.448,9.333,24.038,10.836,23.591z" opacity=".07"/>
  <path fill="#fff" d="M11.553,23.717c6.99-3.075,16.035-6.824,17.284-7.343c3.275-1.358,4.28-1.098,3.779,1.91	c-0.36,2.162-1.398,9.319-2.226,14.774c-0.491,3.237-2.023,2.644-3.218,1.987c-1.019-0.559-5.196-3.376-6.319-4.424	c-1.086-1.014-1.766-1.802-0.573-2.935c0.706-0.671,6.273-5.759,6.776-6.351c0.501-0.591,0.175-0.862-0.389-0.671	c-0.577,0.195-8.865,5.608-9.96,6.319c-1.104,0.717-2.037,0.931-3.127,0.596c-1.132-0.348-2.469-0.717-3.192-0.971	C11.182,25.157,10.548,24.275,11.553,23.717z"/>
</svg>
