<svg width="100" height="100" viewBox="0 0 100 100" fill="none" xmlns="http://www.w3.org/2000/svg">
  <!-- Body -->
  <path d="M25 65 C 25 50, 45 45, 60 50 C 75 55, 85 65, 80 75 C 75 85, 40 85, 30 80 C 20 75, 25 65, 25 65 Z" fill="#FDFDFD"/>
  
  <!-- Tail -->
  <circle cx="82" cy="70" r="6" fill="#FDFDFD"/>
  
  <!-- Head -->
  <ellipse cx="30" cy="55" rx="12" ry="10" fill="#FDFDFD"/>
  
  <!-- Ears (Back) -->
  <path d="M28 48 C 25 35, 22 25, 25 25 C 27 25, 30 35, 32 48" fill="#FDFDFD"/>
  <path d="M28 48 C 26 36, 24 28, 25 28 C 26 28, 28 36, 29 48" fill="#FFC0CB"/>
  
  <!-- Ears (Front) -->
  <path d="M35 50 C 38 35, 42 25, 38 25 C 36 25, 34 35, 33 50" fill="#FDFDFD"/>
  <path d="M35 50 C 37 36, 40 28, 38 28 C 37 28, 35 36, 34 50" fill="#FFC0CB"/>
  
  <!-- Eye -->
  <circle cx="26" cy="53" r="1.5" fill="#333"/>
  <circle cx="26.5" cy="52.5" r="0.5" fill="white"/>

  <!-- Nose -->
  <path d="M22 56 L 24 56 L 23 57 Z" fill="#FFA07A"/>
  
  <!-- Paws -->
  <ellipse cx="40" cy="80" rx="6" ry="3" fill="#FDFDFD"/>
  <ellipse cx="70" cy="80" rx="7" ry="3" fill="#FDFDFD"/>
</svg>
